<svg version="1.1" id="Layer_1" xmlns="http://www.w3.org/2000/svg" xmlns:xlink="http://www.w3.org/1999/xlink" x="0px" y="0px"
	 width="100%" viewBox="0 0 1024 1024" enable-background="new 0 0 1024 1024" xml:space="preserve">
<path fill="#000000" opacity="1.000000" stroke="none" 
	d="
M657.210205,539.853516 
	C653.293030,562.380432 646.853760,583.645996 636.530762,603.624878 
	C616.109497,643.147827 585.068359,669.999268 541.045349,678.737427 
	C495.122040,687.852783 453.632446,677.280640 419.308228,644.258972 
	C396.695343,622.504272 383.810455,595.087952 375.745483,565.151062 
	C371.751099,550.323914 370.006683,535.193176 368.478302,519.940674 
	C365.314178,488.364563 366.945618,457.076599 373.903778,426.239105 
	C383.517059,383.634369 404.375061,347.897522 441.094360,322.789124 
	C459.374023,310.289642 479.877411,304.106110 501.928802,302.581512 
	C538.487244,300.053925 570.714783,310.828888 598.281555,334.656586 
	C626.008911,358.623138 642.704163,389.509796 652.160034,424.592773 
	C659.906128,453.331970 661.253479,482.672760 660.135376,512.188904 
	C659.790710,521.288940 658.252441,530.343750 657.210205,539.853516 
M440.433716,658.056274 
	C468.284729,676.176025 498.663513,682.136108 531.499146,677.857605 
	C564.612244,673.542908 591.765137,658.453613 613.496826,633.558167 
	C634.511780,609.483704 646.201782,580.793274 652.652466,549.853577 
	C658.266052,522.929504 659.061401,495.723694 656.865417,468.323761 
	C654.482056,438.585693 647.548950,410.201416 633.493958,383.746185 
	C623.141479,364.259979 610.008606,346.972565 592.624207,333.191010 
	C565.700256,311.847015 535.012024,302.810303 500.779907,305.102722 
	C479.662872,306.516876 460.206512,313.042938 442.750275,324.631500 
	C418.875366,340.481171 401.545013,362.256195 389.418671,388.092407 
	C375.445068,417.864349 370.550476,449.701080 369.492462,482.195801 
	C368.721497,505.874725 370.360779,529.490479 375.419861,552.686035 
	C384.671600,595.104492 402.600677,632.342346 440.433716,658.056274 
z"/>
<path fill="#000000" opacity="1.000000" stroke="none" 
	d="
M496.764160,735.273560 
	C500.427612,726.213501 507.666656,721.585938 515.367249,723.014038 
	C524.559448,724.718811 530.145081,731.270691 530.164978,740.962463 
	C530.234802,774.946411 530.267151,808.931091 530.120300,842.914612 
	C530.060791,856.680542 516.937378,864.790222 504.962646,858.726013 
	C499.799500,856.111328 496.917694,851.925049 496.615723,846.060059 
	C495.261688,819.756531 496.196686,793.436523 496.105774,767.124817 
	C496.069550,756.646912 495.278229,746.137695 496.764160,735.273560 
M498.879486,807.621094 
	C498.674622,819.107544 499.229065,830.596130 498.474792,842.087158 
	C498.124481,847.424500 499.583069,852.388916 504.417084,855.594543 
	C509.628540,859.050537 515.162964,859.100098 520.533813,856.232971 
	C525.539001,853.560974 527.634460,848.929138 527.647522,843.362549 
	C527.682251,828.536316 527.677429,813.709900 527.674377,798.883606 
	C527.670349,779.726013 527.742920,760.567749 527.603882,741.411072 
	C527.532410,731.559875 520.824890,724.972168 511.750854,725.382751 
	C503.598236,725.751648 498.367371,732.538086 498.426727,742.827393 
	C498.549500,764.105957 498.724030,785.384216 498.879486,807.621094 
z"/>
<path fill="#000000" opacity="1.000000" stroke="none" 
	d="
M495.995941,206.000000 
	C496.321228,182.372757 495.288055,159.229126 496.654327,136.117538 
	C497.184784,127.144363 503.105652,121.158875 511.282104,120.683319 
	C521.507751,120.088585 527.681824,124.609932 529.648376,134.245361 
	C530.011108,136.022522 530.158691,137.873199 530.159851,139.690109 
	C530.182739,174.311813 530.213684,208.933624 530.136963,243.555176 
	C530.111694,254.984192 524.852600,261.381775 514.704224,262.860046 
	C505.774200,264.160858 497.381256,257.419403 496.609802,248.416428 
	C495.413574,234.456558 496.276520,220.470795 495.995941,206.000000 
M527.657043,188.500061 
	C527.656433,172.007904 527.703979,155.515533 527.637146,139.023651 
	C527.597046,129.134521 521.831299,122.866112 513.083557,122.956978 
	C504.408813,123.047096 498.493866,129.572235 498.520447,139.142471 
	C498.547302,148.797195 498.747559,158.451874 498.724487,168.106216 
	C498.662872,193.896332 498.485718,219.686203 498.439331,245.476303 
	C498.428192,251.658524 501.264832,256.412262 506.778595,259.243042 
	C512.278320,262.066589 517.502075,260.740112 522.256165,257.297546 
	C526.588806,254.160202 527.637573,249.474792 527.645325,244.474121 
	C527.673645,226.149490 527.657227,207.824783 527.657043,188.500061 
z"/>
<path fill="#000000" opacity="1.000000" stroke="none" 
	d="
M327.099182,608.030396 
	C332.145172,603.595215 337.380157,601.302429 343.834290,603.600891 
	C354.877563,607.533691 358.354095,620.890381 349.896820,628.951050 
	C334.723724,643.412598 319.148041,657.452698 303.695679,671.619934 
	C294.867920,679.713562 286.008728,687.774841 277.059174,695.733154 
	C267.948486,703.834839 257.024445,702.483337 251.154831,692.678406 
	C247.115509,685.930847 248.260117,678.882324 254.756577,672.963745 
	C268.903381,660.075317 283.159027,647.306213 297.401306,634.522949 
	C307.183746,625.742554 317.018433,617.020264 327.099182,608.030396 
M313.228577,659.713440 
	C324.425140,649.520264 335.673767,639.383484 346.798187,629.112183 
	C353.180573,623.219116 353.803619,615.849976 348.681854,610.149963 
	C343.000977,603.827698 336.410706,603.538208 329.397308,609.544128 
	C323.708374,614.415771 318.226166,619.527954 312.610077,624.485718 
	C293.518219,641.339478 274.327332,658.084961 255.811203,675.575806 
	C249.455658,681.579468 250.191650,690.696655 257.186829,695.920898 
	C263.057648,700.305481 269.243988,699.535950 276.066742,693.392822 
	C288.313507,682.365784 300.501404,671.273499 313.228577,659.713440 
z"/>
<path fill="#000000" opacity="1.000000" stroke="none" 
	d="
M363.990814,246.003372 
	C375.161285,257.708069 386.063782,269.174316 397.017395,280.591522 
	C400.651917,284.379761 403.888763,288.348297 404.246887,293.874939 
	C404.668213,300.377045 401.049072,306.326965 395.023102,309.178894 
	C389.088318,311.987671 381.800903,311.110321 377.010315,306.211121 
	C366.065552,295.018280 355.363708,283.586456 344.637177,272.182068 
	C332.885651,259.687927 321.149780,247.177612 309.539551,234.552505 
	C303.137329,227.590607 303.046448,218.448990 308.993317,212.602814 
	C316.044434,205.671082 325.528168,205.478851 332.546967,212.684143 
	C343.118378,223.536377 353.360596,234.709244 363.990814,246.003372 
M373.820892,299.681427 
	C375.453339,301.343109 376.990570,303.113068 378.734802,304.647675 
	C386.256195,311.265198 396.557220,309.017700 400.533264,299.803131 
	C403.735596,292.381683 399.663879,287.046906 394.936310,282.051086 
	C374.475464,260.429199 353.985931,238.834488 333.530823,217.207169 
	C331.581635,215.146271 329.704010,213.046021 327.152893,211.686646 
	C321.407990,208.625427 314.182922,210.028641 309.967926,215.049515 
	C306.280945,219.441391 306.267487,226.176514 310.156830,231.186981 
	C312.397095,234.072998 314.862366,236.797089 317.362152,239.466904 
	C336.006866,259.379822 354.685516,279.260895 373.820892,299.681427 
z"/>
<path fill="#000000" opacity="1.000000" stroke="none" 
	d="
M757.221802,659.761047 
	C762.654480,664.703918 768.007690,669.224915 772.936096,674.169250 
	C777.221008,678.468079 778.759033,683.946899 776.770874,689.797546 
	C774.694702,695.907043 770.314270,699.795471 763.785645,700.847412 
	C757.956909,701.786621 753.539978,698.940918 749.457275,695.277039 
	C736.080994,683.273193 722.673523,671.304016 709.317627,659.277588 
	C698.555542,649.586792 687.735657,639.955505 677.154663,630.069580 
	C667.686279,621.223206 671.316223,606.864502 683.736450,603.278137 
	C689.900513,601.498291 694.734863,604.039490 699.177063,608.006409 
	C718.423706,625.193848 737.695251,642.353394 757.221802,659.761047 
M712.026855,658.465881 
	C725.426697,670.452087 738.849854,682.412354 752.213013,694.439331 
	C756.542419,698.335999 761.288208,700.070068 766.819763,697.473145 
	C776.128418,693.103027 777.834229,682.051636 769.950256,674.760132 
	C756.264771,662.102905 742.254456,649.796204 728.348572,637.378052 
	C717.917297,628.062744 707.463257,618.772339 696.963501,609.534363 
	C693.016235,606.061462 688.567993,604.046387 683.222961,606.140991 
	C673.473816,609.961365 671.261841,621.255920 678.995850,628.413330 
	C689.747192,638.363098 700.659546,648.138855 712.026855,658.465881 
z"/>
<path fill="#000000" opacity="1.000000" stroke="none" 
	d="
M685.111755,221.124603 
	C688.368652,217.757858 691.281799,214.537399 694.441162,211.579956 
	C701.295166,205.164001 710.479736,205.468872 717.220215,212.179337 
	C723.336365,218.268265 723.207581,227.277756 716.842346,234.066391 
	C694.737488,257.641571 672.621277,281.206177 650.493347,304.759705 
	C643.592346,312.105347 633.511597,312.938049 626.868896,306.771637 
	C619.899109,300.301605 619.715149,290.117706 626.742737,282.667053 
	C646.061951,262.185028 665.492920,241.808441 685.111755,221.124603 
M638.010681,274.497375 
	C634.883789,277.727173 631.748657,280.949036 628.632751,284.189392 
	C626.268372,286.648132 624.619324,289.490875 624.223816,292.934509 
	C623.563477,298.685425 626.718811,304.724335 631.591187,307.125153 
	C637.431885,310.003082 643.274963,308.907806 648.316589,303.591095 
	C662.865234,288.248505 677.316833,272.813995 691.801331,257.410583 
	C699.670471,249.042160 707.703491,240.819138 715.340271,232.243469 
	C722.238953,224.496597 719.500061,213.742538 709.788330,210.458099 
	C703.494202,208.329483 698.061218,210.705627 693.606750,215.439728 
	C675.241699,234.957626 656.874268,254.473221 638.010681,274.497375 
z"/>
<path fill="#000000" opacity="1.000000" stroke="none" 
	d="
M340.328033,449.268005 
	C337.081482,458.868774 332.430573,462.333740 322.997711,462.341217 
	C288.552124,462.368530 254.106445,462.411835 219.661072,462.332520 
	C210.927917,462.312408 204.955597,456.488281 203.832352,447.458282 
	C202.943420,440.311981 208.330399,432.345673 215.554916,430.319916 
	C217.126938,429.879120 218.830658,429.747131 220.474030,429.745239 
	C254.753250,429.706177 289.032562,429.672607 323.311768,429.718018 
	C334.587311,429.732941 340.863525,436.890137 340.328033,449.268005 
M260.499817,460.604889 
	C278.321747,460.600128 296.143890,460.639771 313.965454,460.556458 
	C317.952362,460.537811 321.950531,460.215363 325.919464,459.801849 
	C330.118896,459.364288 333.456299,457.381012 335.673676,453.647522 
	C341.580688,443.701843 335.131073,432.632263 323.089661,432.466003 
	C308.768188,432.268250 294.442322,432.383179 280.118347,432.378571 
	C260.297913,432.372192 240.476837,432.285248 220.657333,432.420776 
	C209.719177,432.495575 203.837067,441.493378 207.724716,451.707489 
	C210.341217,458.581787 216.020782,460.448303 222.524078,460.534821 
	C234.847412,460.698761 247.174332,460.594757 260.499817,460.604889 
z"/>
<path fill="#000000" opacity="1.000000" stroke="none" 
	d="
M773.000000,429.714172 
	C782.325562,429.712708 791.151428,429.669556 799.976685,429.722046 
	C810.116211,429.782349 817.277161,436.444092 817.325073,445.760254 
	C817.375610,455.583313 810.467896,462.325043 800.099426,462.340210 
	C768.294128,462.386780 736.488586,462.388428 704.683289,462.347626 
	C694.268311,462.334290 687.593201,455.927399 687.694275,446.270721 
	C687.797852,436.374786 694.668884,429.764954 705.059082,429.742737 
	C727.539307,429.694733 750.019714,429.719666 773.000000,429.714172 
M781.499329,460.565948 
	C788.793396,460.271912 796.154602,461.462677 803.380615,459.767456 
	C811.115479,457.952850 815.512024,451.654480 814.644653,443.885590 
	C813.919800,437.393158 807.949158,432.316864 800.511963,432.357269 
	C767.900452,432.534485 735.282410,431.805878 702.678101,432.987457 
	C695.447327,433.249512 690.655884,438.071228 690.295654,445.311554 
	C689.904602,453.170715 694.273560,458.824982 701.670044,459.724365 
	C705.624023,460.205170 709.622009,460.547363 713.601318,460.559448 
	C735.900513,460.627106 758.200012,460.575104 781.499329,460.565948 
z"/>
<path fill="#000000" opacity="1.000000" stroke="none" 
	d="
M540.076721,629.267212 
	C513.755615,640.712280 483.606445,634.660034 463.677795,614.602661 
	C447.233032,598.051575 438.146912,577.650146 433.099091,555.487366 
	C423.992371,515.503784 424.609283,475.205780 431.676788,434.966797 
	C435.361084,413.990112 443.018219,394.505737 456.450836,377.801300 
	C469.289886,361.834991 485.675415,352.025299 506.688599,350.580750 
	C540.996460,348.222260 564.026123,364.886078 579.885681,393.545776 
	C589.529297,410.972809 593.640076,430.111053 596.462036,449.688171 
	C599.787354,472.756958 599.244995,495.940277 597.873169,518.951599 
	C596.179871,547.354431 590.357239,575.060242 573.983154,599.351807 
	C565.354065,612.153381 554.737854,622.720520 540.076721,629.267212 
M538.300415,357.218719 
	C517.973999,349.813934 498.112518,350.600098 479.137421,361.300018 
	C466.176086,368.608826 456.842224,379.671173 449.565308,392.469208 
	C434.472260,419.013550 430.564392,448.301422 429.465179,478.082062 
	C428.735107,497.861206 429.155090,517.653503 432.204285,537.330261 
	C435.923798,561.332886 442.666809,584.178650 457.569794,603.762451 
	C470.809387,621.160339 488.134888,632.058228 510.519470,632.557495 
	C537.653015,633.162720 557.404846,619.863403 571.971436,597.916931 
	C587.939331,573.859314 593.721191,546.536438 595.408691,518.419617 
	C596.651428,497.713074 597.279114,476.883148 594.801331,456.101654 
	C592.643372,438.002777 589.288513,420.264252 581.923340,403.511444 
	C572.998413,383.210907 559.827209,366.751465 538.300415,357.218719 
z"/>
</svg>